<svg width="299" height="21" viewBox="0 0 299 21" fill="none" xmlns="http://www.w3.org/2000/svg">
<path d="M0.700009 19.964C0.513342 19.964 0.345342 19.8987 0.196009 19.768C0.0653419 19.6187 8.55327e-06 19.4507 8.55327e-06 19.264V1.06399C8.55327e-06 0.858655 0.0653419 0.690655 0.196009 0.559989C0.345342 0.429322 0.513342 0.363988 0.700009 0.363988H3.66801C4.13468 0.363988 4.45201 0.541321 4.62001 0.895988L11.452 11.648V1.06399C11.452 0.858655 11.5173 0.690655 11.648 0.559989C11.7973 0.429322 11.9653 0.363988 12.152 0.363988H15.512C15.7173 0.363988 15.8853 0.429322 16.016 0.559989C16.1467 0.690655 16.212 0.858655 16.212 1.06399V19.236C16.212 19.4413 16.1467 19.6187 16.016 19.768C15.8853 19.8987 15.7173 19.964 15.512 19.964H12.516C12.1053 19.964 11.7973 19.7867 11.592 19.432L4.76001 9.07199V19.264C4.76001 19.4507 4.69468 19.6187 4.56401 19.768C4.43334 19.8987 4.26534 19.964 4.06001 19.964H0.700009ZM19.005 19.964C18.8557 19.964 18.7157 19.908 18.585 19.796C18.473 19.6653 18.417 19.5253 18.417 19.376C18.417 19.264 18.4263 19.18 18.445 19.124L25.025 1.14799C25.081 0.923989 25.2023 0.737322 25.389 0.587988C25.5757 0.438655 25.8183 0.363988 26.117 0.363988H30.261C30.5597 0.363988 30.8023 0.438655 30.989 0.587988C31.1757 0.737322 31.297 0.923989 31.353 1.14799L37.905 19.124L37.961 19.376C37.961 19.5253 37.8957 19.6653 37.765 19.796C37.653 19.908 37.513 19.964 37.345 19.964H33.901C33.453 19.964 33.1543 19.768 33.005 19.376L31.913 16.52H24.437L23.373 19.376C23.2237 19.768 22.9157 19.964 22.449 19.964H19.005ZM30.793 12.488L28.189 5.09599L25.585 12.488H30.793ZM40.868 19.964C40.6813 19.964 40.5133 19.8987 40.364 19.768C40.2333 19.6187 40.168 19.4507 40.168 19.264V1.06399C40.168 0.858655 40.2333 0.690655 40.364 0.559989C40.5133 0.429322 40.6813 0.363988 40.868 0.363988H43.892C44.34 0.363988 44.6666 0.569321 44.872 0.979988L49.8 9.79999L54.728 0.979988C54.9333 0.569321 55.26 0.363988 55.708 0.363988H58.704C58.9093 0.363988 59.0773 0.429322 59.208 0.559989C59.3573 0.690655 59.432 0.858655 59.432 1.06399V19.264C59.432 19.4693 59.3573 19.6373 59.208 19.768C59.0773 19.8987 58.9093 19.964 58.704 19.964H55.372C55.1666 19.964 54.9893 19.8987 54.84 19.768C54.7093 19.6373 54.644 19.4693 54.644 19.264V8.76399L51.508 14.616C51.2653 15.0453 50.9386 15.26 50.528 15.26H49.072C48.8293 15.26 48.6333 15.204 48.484 15.092C48.3346 14.98 48.204 14.8213 48.092 14.616L44.928 8.76399V19.264C44.928 19.4507 44.8626 19.6187 44.732 19.768C44.6013 19.8987 44.4333 19.964 44.228 19.964H40.868ZM62.2355 19.964C62.0861 19.964 61.9461 19.908 61.8155 19.796C61.7035 19.6653 61.6475 19.5253 61.6475 19.376C61.6475 19.264 61.6568 19.18 61.6755 19.124L68.2555 1.14799C68.3115 0.923989 68.4328 0.737322 68.6195 0.587988C68.8061 0.438655 69.0488 0.363988 69.3475 0.363988H73.4915C73.7901 0.363988 74.0328 0.438655 74.2195 0.587988C74.4061 0.737322 74.5275 0.923989 74.5835 1.14799L81.1355 19.124L81.1915 19.376C81.1915 19.5253 81.1261 19.6653 80.9955 19.796C80.8835 19.908 80.7435 19.964 80.5755 19.964H77.1315C76.6835 19.964 76.3848 19.768 76.2355 19.376L75.1435 16.52H67.6675L66.6035 19.376C66.4541 19.768 66.1461 19.964 65.6795 19.964H62.2355ZM74.0235 12.488L71.4195 5.09599L68.8155 12.488H74.0235ZM84.0984 19.964C83.9118 19.964 83.7438 19.8987 83.5944 19.768C83.4638 19.6187 83.3984 19.4507 83.3984 19.264V1.06399C83.3984 0.858655 83.4638 0.690655 83.5944 0.559989C83.7438 0.429322 83.9118 0.363988 84.0984 0.363988H87.0664C87.5331 0.363988 87.8504 0.541321 88.0184 0.895988L94.8504 11.648V1.06399C94.8504 0.858655 94.9158 0.690655 95.0464 0.559989C95.1958 0.429322 95.3638 0.363988 95.5504 0.363988H98.9104C99.1158 0.363988 99.2838 0.429322 99.4144 0.559989C99.5451 0.690655 99.6104 0.858655 99.6104 1.06399V19.236C99.6104 19.4413 99.5451 19.6187 99.4144 19.768C99.2838 19.8987 99.1158 19.964 98.9104 19.964H95.9144C95.5038 19.964 95.1958 19.7867 94.9904 19.432L88.1584 9.07199V19.264C88.1584 19.4507 88.0931 19.6187 87.9624 19.768C87.8318 19.8987 87.6638 19.964 87.4584 19.964H84.0984ZM111.615 20.244C108.927 20.244 106.827 19.5907 105.315 18.284C103.803 16.9587 103.001 15.0827 102.907 12.656C102.889 12.1147 102.879 11.256 102.879 10.08C102.879 8.90399 102.889 8.04532 102.907 7.50399C103.001 5.13332 103.813 3.30399 105.343 2.01599C106.893 0.727988 108.983 0.0839882 111.615 0.0839882C113.389 0.0839882 114.929 0.373322 116.235 0.951989C117.561 1.53066 118.569 2.26799 119.259 3.16399C119.969 4.05999 120.342 4.98399 120.379 5.93599C120.379 6.10399 120.314 6.24399 120.183 6.35599C120.071 6.46799 119.931 6.52399 119.763 6.52399H115.675C115.489 6.52399 115.339 6.49599 115.227 6.43999C115.115 6.38399 115.022 6.28132 114.947 6.13199C114.705 5.59066 114.322 5.12399 113.799 4.73199C113.277 4.32132 112.549 4.11599 111.615 4.11599C109.394 4.11599 108.227 5.29199 108.115 7.64399C108.097 8.16666 108.087 8.97866 108.087 10.08C108.087 11.1627 108.097 11.9747 108.115 12.516C108.227 14.98 109.422 16.212 111.699 16.212C112.801 16.212 113.678 15.932 114.331 15.372C115.003 14.7933 115.339 13.916 115.339 12.74V12.208H112.707C112.502 12.208 112.334 12.1427 112.203 12.012C112.073 11.8627 112.007 11.6853 112.007 11.48V9.40799C112.007 9.20266 112.073 9.03466 112.203 8.90399C112.334 8.75466 112.502 8.67999 112.707 8.67999H119.763C119.969 8.67999 120.137 8.75466 120.267 8.90399C120.398 9.03466 120.463 9.20266 120.463 9.40799V12.6C120.463 14.1867 120.099 15.5587 119.371 16.716C118.643 17.8547 117.607 18.732 116.263 19.348C114.938 19.9453 113.389 20.244 111.615 20.244ZM122.118 19.964C121.969 19.964 121.829 19.908 121.698 19.796C121.586 19.6653 121.53 19.5253 121.53 19.376C121.53 19.264 121.54 19.18 121.558 19.124L128.138 1.14799C128.194 0.923989 128.316 0.737322 128.502 0.587988C128.689 0.438655 128.932 0.363988 129.23 0.363988H133.374C133.673 0.363988 133.916 0.438655 134.102 0.587988C134.289 0.737322 134.41 0.923989 134.466 1.14799L141.018 19.124L141.074 19.376C141.074 19.5253 141.009 19.6653 140.878 19.796C140.766 19.908 140.626 19.964 140.458 19.964H137.014C136.566 19.964 136.268 19.768 136.118 19.376L135.026 16.52H127.55L126.486 19.376C126.337 19.768 126.029 19.964 125.562 19.964H122.118ZM133.906 12.488L131.302 5.09599L128.698 12.488H133.906ZM143.981 19.964C143.795 19.964 143.627 19.8987 143.477 19.768C143.347 19.6187 143.281 19.4507 143.281 19.264V1.06399C143.281 0.858655 143.347 0.690655 143.477 0.559989C143.627 0.429322 143.795 0.363988 143.981 0.363988H146.949C147.416 0.363988 147.733 0.541321 147.901 0.895988L154.733 11.648V1.06399C154.733 0.858655 154.799 0.690655 154.929 0.559989C155.079 0.429322 155.247 0.363988 155.433 0.363988H158.793C158.999 0.363988 159.167 0.429322 159.297 0.559989C159.428 0.690655 159.493 0.858655 159.493 1.06399V19.236C159.493 19.4413 159.428 19.6187 159.297 19.768C159.167 19.8987 158.999 19.964 158.793 19.964H155.797C155.387 19.964 155.079 19.7867 154.873 19.432L148.041 9.07199V19.264C148.041 19.4507 147.976 19.6187 147.845 19.768C147.715 19.8987 147.547 19.964 147.341 19.964H143.981ZM164.106 19.964C163.92 19.964 163.752 19.8987 163.602 19.768C163.472 19.6187 163.406 19.4507 163.406 19.264V1.06399C163.406 0.858655 163.472 0.690655 163.602 0.559989C163.752 0.429322 163.92 0.363988 164.106 0.363988H167.802C168.008 0.363988 168.176 0.429322 168.306 0.559989C168.437 0.690655 168.502 0.858655 168.502 1.06399V15.736H176.986C177.192 15.736 177.36 15.8107 177.49 15.96C177.621 16.0907 177.686 16.2587 177.686 16.464V19.264C177.686 19.4507 177.621 19.6187 177.49 19.768C177.36 19.8987 177.192 19.964 176.986 19.964H164.106ZM180.813 19.964C180.627 19.964 180.459 19.8987 180.309 19.768C180.179 19.6187 180.113 19.4507 180.113 19.264V1.06399C180.113 0.858655 180.179 0.690655 180.309 0.559989C180.459 0.429322 180.627 0.363988 180.813 0.363988H184.565C184.771 0.363988 184.939 0.429322 185.069 0.559989C185.219 0.690655 185.293 0.858655 185.293 1.06399V19.264C185.293 19.4693 185.219 19.6373 185.069 19.768C184.939 19.8987 184.771 19.964 184.565 19.964H180.813ZM189.891 19.964C189.705 19.964 189.537 19.8987 189.387 19.768C189.257 19.6187 189.191 19.4507 189.191 19.264V1.06399C189.191 0.858655 189.257 0.690655 189.387 0.559989C189.537 0.429322 189.705 0.363988 189.891 0.363988H193.419C193.625 0.363988 193.793 0.429322 193.923 0.559989C194.054 0.690655 194.119 0.858655 194.119 1.06399V7.27999L199.299 0.895988C199.523 0.541321 199.887 0.363988 200.391 0.363988H204.423C204.591 0.363988 204.731 0.429322 204.843 0.559989C204.955 0.671988 205.011 0.802655 205.011 0.951989C205.011 1.08265 204.983 1.19465 204.927 1.28799L198.207 9.74399L205.431 19.04C205.506 19.1147 205.543 19.2267 205.543 19.376C205.543 19.5253 205.487 19.6653 205.375 19.796C205.263 19.908 205.123 19.964 204.955 19.964H200.783C200.335 19.964 199.962 19.7773 199.663 19.404L194.119 12.488V19.264C194.119 19.4693 194.054 19.6373 193.923 19.768C193.793 19.8987 193.625 19.964 193.419 19.964H189.891ZM208.458 19.964C208.271 19.964 208.103 19.8987 207.954 19.768C207.823 19.6187 207.758 19.4507 207.758 19.264V1.06399C207.758 0.858655 207.823 0.690655 207.954 0.559989C208.103 0.429322 208.271 0.363988 208.458 0.363988H212.154C212.359 0.363988 212.527 0.429322 212.658 0.559989C212.788 0.690655 212.854 0.858655 212.854 1.06399V15.736H221.338C221.543 15.736 221.711 15.8107 221.842 15.96C221.972 16.0907 222.038 16.2587 222.038 16.464V19.264C222.038 19.4507 221.972 19.6187 221.842 19.768C221.711 19.8987 221.543 19.964 221.338 19.964H208.458ZM223.345 19.964C223.196 19.964 223.056 19.908 222.925 19.796C222.813 19.6653 222.757 19.5253 222.757 19.376C222.757 19.264 222.766 19.18 222.785 19.124L229.365 1.14799C229.421 0.923989 229.542 0.737322 229.729 0.587988C229.916 0.438655 230.158 0.363988 230.457 0.363988H234.601C234.9 0.363988 235.142 0.438655 235.329 0.587988C235.516 0.737322 235.637 0.923989 235.693 1.14799L242.245 19.124L242.301 19.376C242.301 19.5253 242.236 19.6653 242.105 19.796C241.993 19.908 241.853 19.964 241.685 19.964H238.241C237.793 19.964 237.494 19.768 237.345 19.376L236.253 16.52H228.777L227.713 19.376C227.564 19.768 227.256 19.964 226.789 19.964H223.345ZM235.133 12.488L232.529 5.09599L229.925 12.488H235.133ZM245.208 19.964C245.021 19.964 244.853 19.8987 244.704 19.768C244.573 19.6187 244.508 19.4507 244.508 19.264V1.06399C244.508 0.858655 244.573 0.690655 244.704 0.559989C244.853 0.429322 245.021 0.363988 245.208 0.363988H252.824C255.269 0.363988 257.173 0.923988 258.536 2.04399C259.917 3.14532 260.608 4.71332 260.608 6.74799C260.608 8.05466 260.3 9.16532 259.684 10.08C259.068 10.9947 258.218 11.6947 257.136 12.18L260.972 19.068C261.028 19.18 261.056 19.2827 261.056 19.376C261.056 19.5253 260.99 19.6653 260.86 19.796C260.748 19.908 260.617 19.964 260.468 19.964H256.744C256.202 19.964 255.82 19.712 255.596 19.208L252.404 13.048H249.548V19.264C249.548 19.4693 249.473 19.6373 249.324 19.768C249.193 19.8987 249.025 19.964 248.82 19.964H245.208ZM252.768 9.07199C253.626 9.07199 254.28 8.86666 254.728 8.45599C255.176 8.02666 255.4 7.43866 255.4 6.69199C255.4 5.94532 255.176 5.35732 254.728 4.92799C254.298 4.47999 253.645 4.25599 252.768 4.25599H249.548V9.07199H252.768ZM263.783 19.964C263.578 19.964 263.401 19.8987 263.251 19.768C263.121 19.6373 263.055 19.4693 263.055 19.264V17.276C263.055 16.716 263.289 16.2587 263.755 15.904L266.667 13.048C268.366 11.7413 269.654 10.724 270.531 9.99599C271.409 9.26799 272.071 8.60532 272.519 8.00799C272.967 7.41066 273.191 6.84132 273.191 6.29999C273.191 4.82532 272.463 4.08799 271.007 4.08799C270.242 4.08799 269.654 4.32132 269.243 4.78799C268.833 5.23599 268.562 5.80532 268.431 6.49599C268.319 6.92532 268.002 7.13999 267.479 7.13999H263.979C263.811 7.13999 263.671 7.08399 263.559 6.97199C263.447 6.85999 263.391 6.71999 263.391 6.55199C263.429 5.35732 263.755 4.26532 264.371 3.27599C265.006 2.26799 265.893 1.47465 267.031 0.895988C268.189 0.298654 269.514 -1.23978e-05 271.007 -1.23978e-05C272.575 -1.23978e-05 273.919 0.251988 275.039 0.755988C276.159 1.25999 277.009 1.96932 277.587 2.88399C278.166 3.79865 278.455 4.86265 278.455 6.07599C278.455 7.38266 278.045 8.57732 277.223 9.65999C276.421 10.724 275.189 11.8813 273.527 13.132L270.951 15.736H278.147C278.353 15.736 278.521 15.8013 278.651 15.932C278.801 16.0627 278.875 16.2307 278.875 16.436V19.264C278.875 19.4693 278.801 19.6373 278.651 19.768C278.521 19.8987 278.353 19.964 278.147 19.964H263.783ZM290.873 19.964C290.687 19.964 290.519 19.8987 290.369 19.768C290.239 19.6187 290.173 19.4507 290.173 19.264V16.1H281.465C281.26 16.1 281.092 16.0347 280.961 15.904C280.831 15.7733 280.765 15.6053 280.765 15.4V12.74C280.765 12.46 280.868 12.1707 281.073 11.872L289.221 0.839988C289.483 0.522655 289.828 0.363988 290.257 0.363988H294.345C294.551 0.363988 294.719 0.429322 294.849 0.559989C294.98 0.690655 295.045 0.858655 295.045 1.06399V11.928H297.509C297.733 11.928 297.911 12.0027 298.041 12.152C298.172 12.2827 298.237 12.4413 298.237 12.628V15.4C298.237 15.6053 298.172 15.7733 298.041 15.904C297.911 16.0347 297.743 16.1 297.537 16.1H295.045V19.264C295.045 19.4507 294.98 19.6187 294.849 19.768C294.719 19.8987 294.551 19.964 294.345 19.964H290.873ZM290.285 12.124V5.51599L285.581 12.124H290.285Z" fill="#295091"/>
</svg>
